# xmcd
#
# Track frame offsets:
#	150
#	19972
#	42172
#	63154
#	86400
#	107284
#	122108
#	138840
#	155370
#	177854
#	195344
#	208941
#
# Disc length: 2993 seconds
#
# Revision: 1
# Processed by: cddbd v1.5.1PL0 Copyright (c) Steve Scherf et al.
# Submitted via: audiograbber 1.82.01
#
DISCID=950baf0c
DTITLE=Niko - Life on Earth
DYEAR=2004
DGENRE=Soul
TTITLE0=You're My Favourite Music
TTITLE1=Shifting
TTITLE2=Swamp
TTITLE3=Don't Waste Your Time
TTITLE4=Roam
TTITLE5=All I Do
TTITLE6=An Echo Of Quiet and Green
TTITLE7=Let Me Go
TTITLE8=The Hourly Second
TTITLE9=Life On Earth
TTITLE10=Siren
TTITLE11=Love You To Pieces
EXTD=
EXTT0=
EXTT1=
EXTT2=
EXTT3=
EXTT4=
EXTT5=
EXTT6=
EXTT7=
EXTT8=
EXTT9=
EXTT10=
EXTT11=
PLAYORDER=
